<svg xmlns="http://www.w3.org/2000/svg" width="420" height="112" viewBox="0 0 420 112" role="img" aria-label="ERDS compact logo dark" shape-rendering="geometricPrecision">
  <defs>
    <linearGradient id="rainbowCloudCompactDark" x1="10" y1="56" x2="112" y2="56" gradientUnits="userSpaceOnUse">
      <stop offset="0%" stop-color="#ff6a77" />
      <stop offset="16%" stop-color="#ff9b6b" />
      <stop offset="32%" stop-color="#ffd978" />
      <stop offset="50%" stop-color="#84e58b" />
      <stop offset="68%" stop-color="#6ad4ff" />
      <stop offset="86%" stop-color="#8e9dff" />
      <stop offset="100%" stop-color="#c2a4ff" />
    </linearGradient>
    <linearGradient id="cloudOutlineCompactDark" x1="16" y1="24" x2="105" y2="90" gradientUnits="userSpaceOnUse">
      <stop offset="0%" stop-color="#ffffff" stop-opacity="0.36" />
      <stop offset="100%" stop-color="#0b1220" stop-opacity="0.24" />
    </linearGradient>
    <linearGradient id="cloudShineCompactDark" x1="61" y1="18" x2="61" y2="80" gradientUnits="userSpaceOnUse">
      <stop offset="0%" stop-color="#ffffff" stop-opacity="0.38" />
      <stop offset="66%" stop-color="#ffffff" stop-opacity="0.1" />
      <stop offset="100%" stop-color="#ffffff" stop-opacity="0" />
    </linearGradient>
  </defs>

  <path
    d="M10 66C10 50 22 38 38 36C43 22 58 12 76 12C94 12 110 21 115 35C129 38 140 50 140 66C140 84 125 98 107 98H42C24 98 10 84 10 66Z"
    fill="url(#rainbowCloudCompactDark)"
    stroke="url(#cloudOutlineCompactDark)"
    stroke-width="1"
    stroke-linejoin="round"
  />
  <path
    d="M21 62C21 49 31 39 44 37C48 27 60 20 73 20C87 20 99 27 104 36C95 27 84 23 72 23C60 23 49 28 42 38C31 40 23 49 23 60C23 62 23 64 24 65C22 64 21 63 21 62Z"
    fill="url(#cloudShineCompactDark)"
  />

  <text x="158" y="76" font-size="64" font-family="Inter, Raleway, Arial, sans-serif" font-weight="800" fill="#ecf2ff" letter-spacing="1.3">ERDS</text>
</svg>
